<svg width="131" height="13" viewBox="0 0 131 13" fill="none" xmlns="http://www.w3.org/2000/svg">
<path id="Logo" fill-rule="evenodd" clip-rule="evenodd" d="M3.34406 2.88H0.112061V0.671999H9.07206V2.88H5.84006V12H3.34406V2.88ZM22.0881 7.632C22.0881 8.304 21.9867 8.92266 21.7841 9.488C21.5814 10.0533 21.2801 10.544 20.8801 10.96C20.4801 11.376 19.9814 11.7013 19.3841 11.936C18.7867 12.1707 18.0987 12.288 17.3201 12.288C16.5307 12.288 15.8374 12.1707 15.2401 11.936C14.6427 11.7013 14.1441 11.376 13.7441 10.96C13.3441 10.544 13.0427 10.0533 12.8401 9.488C12.6374 8.92266 12.5361 8.304 12.5361 7.632V0.671999H15.0321V7.536C15.0321 7.888 15.0881 8.21333 15.2001 8.512C15.3121 8.81067 15.4694 9.06933 15.6721 9.288C15.8747 9.50667 16.1174 9.67733 16.4001 9.8C16.6827 9.92267 16.9894 9.984 17.3201 9.984C17.6507 9.984 17.9547 9.92267 18.2321 9.8C18.5094 9.67733 18.7494 9.50667 18.9521 9.288C19.1547 9.06933 19.3121 8.81067 19.4241 8.512C19.5361 8.21333 19.5921 7.888 19.5921 7.536V0.671999H22.0881V7.632ZM28.7841 2.88H25.5521V0.671999H34.5121V2.88H31.2801V12H28.7841V2.88ZM37.3681 6.336C37.3681 5.42933 37.5201 4.608 37.8241 3.872C38.1281 3.136 38.5521 2.50933 39.0961 1.992C39.6401 1.47466 40.2854 1.07733 41.0321 0.799999C41.7787 0.522664 42.5947 0.383999 43.4801 0.383999C44.3654 0.383999 45.1814 0.522664 45.9281 0.799999C46.6747 1.07733 47.3201 1.47466 47.8641 1.992C48.4081 2.50933 48.8321 3.136 49.1361 3.872C49.4401 4.608 49.5921 5.42933 49.5921 6.336C49.5921 7.24267 49.4401 8.064 49.1361 8.8C48.8321 9.536 48.4081 10.1627 47.8641 10.68C47.3201 11.1973 46.6747 11.5947 45.9281 11.872C45.1814 12.1493 44.3654 12.288 43.4801 12.288C42.5947 12.288 41.7787 12.1493 41.0321 11.872C40.2854 11.5947 39.6401 11.1973 39.0961 10.68C38.5521 10.1627 38.1281 9.536 37.8241 8.8C37.5201 8.064 37.3681 7.24267 37.3681 6.336ZM39.9601 6.336C39.9601 6.86933 40.0427 7.35733 40.2081 7.8C40.3734 8.24267 40.6107 8.62666 40.9201 8.952C41.2294 9.27733 41.6001 9.53066 42.0321 9.712C42.4641 9.89333 42.9467 9.984 43.4801 9.984C44.0134 9.984 44.4961 9.89333 44.9281 9.712C45.3601 9.53066 45.7307 9.27733 46.0401 8.952C46.3494 8.62666 46.5867 8.24267 46.7521 7.8C46.9174 7.35733 47.0001 6.86933 47.0001 6.336C47.0001 5.81333 46.9174 5.328 46.7521 4.88C46.5867 4.432 46.3494 4.04533 46.0401 3.72C45.7307 3.39466 45.3601 3.14133 44.9281 2.96C44.4961 2.77866 44.0134 2.688 43.4801 2.688C42.9467 2.688 42.4641 2.77866 42.0321 2.96C41.6001 3.14133 41.2294 3.39466 40.9201 3.72C40.6107 4.04533 40.3734 4.432 40.2081 4.88C40.0427 5.328 39.9601 5.81333 39.9601 6.336ZM53.4881 0.671999H57.8721C58.4481 0.671999 58.9947 0.727998 59.5121 0.839999C60.0294 0.951999 60.4827 1.13866 60.8721 1.4C61.2614 1.66133 61.5707 2.01333 61.8001 2.456C62.0294 2.89867 62.1441 3.45066 62.1441 4.112C62.1441 4.912 61.9361 5.592 61.5201 6.152C61.1041 6.712 60.4961 7.06666 59.6961 7.216L62.5761 12H59.5841L57.2161 7.472H55.9841V12H53.4881V0.671999ZM55.9841 5.36H57.4561C57.6801 5.36 57.9174 5.352 58.1681 5.336C58.4187 5.32 58.6454 5.272 58.8481 5.192C59.0507 5.112 59.2187 4.98667 59.3521 4.816C59.4854 4.64533 59.5521 4.40533 59.5521 4.096C59.5521 3.808 59.4934 3.57867 59.3761 3.408C59.2587 3.23733 59.1094 3.10667 58.9281 3.016C58.7467 2.92533 58.5387 2.864 58.3041 2.832C58.0694 2.8 57.8401 2.784 57.6161 2.784H55.9841V5.36ZM66.0561 0.671999H69.8321L72.4401 8.064H72.4721L75.0961 0.671999H78.8561V12H76.3601V3.312H76.3281L73.3521 12H71.4481L68.5841 3.312H68.5521V12H66.0561V0.671999ZM87.0881 0.671999H89.1521L94.0801 12H91.2641L90.2881 9.6H85.8881L84.9441 12H82.1921L87.0881 0.671999ZM88.0481 3.968L86.6721 7.488H89.4401L88.0481 3.968ZM98.1361 2.88H94.9041V0.671999H103.864V2.88H100.632V12H98.1361V2.88ZM114.736 3.616C114.491 3.31733 114.189 3.088 113.832 2.928C113.475 2.768 113.061 2.688 112.592 2.688C112.123 2.688 111.688 2.77866 111.288 2.96C110.888 3.14133 110.541 3.39466 110.248 3.72C109.955 4.04533 109.725 4.432 109.56 4.88C109.395 5.328 109.312 5.81333 109.312 6.336C109.312 6.86934 109.395 7.35733 109.56 7.8C109.725 8.24267 109.952 8.62666 110.24 8.952C110.528 9.27733 110.867 9.53066 111.256 9.712C111.645 9.89333 112.064 9.984 112.512 9.984C113.024 9.984 113.477 9.87733 113.872 9.664C114.267 9.45066 114.592 9.152 114.848 8.768L116.928 10.32C116.448 10.992 115.84 11.488 115.104 11.808C114.368 12.128 113.611 12.288 112.832 12.288C111.947 12.288 111.131 12.1493 110.384 11.872C109.637 11.5947 108.992 11.1973 108.448 10.68C107.904 10.1627 107.48 9.536 107.176 8.8C106.872 8.064 106.72 7.24267 106.72 6.336C106.72 5.42933 106.872 4.608 107.176 3.872C107.48 3.136 107.904 2.50933 108.448 1.992C108.992 1.47466 109.637 1.07733 110.384 0.799999C111.131 0.522664 111.947 0.383999 112.832 0.383999C113.152 0.383999 113.485 0.413332 113.832 0.471999C114.179 0.530666 114.52 0.623998 114.856 0.751999C115.192 0.88 115.515 1.05066 115.824 1.264C116.133 1.47733 116.411 1.73866 116.656 2.048L114.736 3.616ZM120.488 0.671999H122.984V4.896H127.832V0.671999H130.328V12H127.832V7.104H122.984V12H120.488V0.671999Z" fill="#2A3849"/>
</svg>
